<svg width="148" height="147" viewBox="0 0 148 147" fill="none" xmlns="http://www.w3.org/2000/svg">
<g opacity="0.5">
<path fill-rule="evenodd" clip-rule="evenodd" d="M0.5 73.5C0.5 32.9071 33.4071 -1.90528e-05 74 -1.90528e-05C93.4967 -0.0109039 112.198 7.72933 125.984 21.5156C139.771 35.3019 147.511 54.0032 147.5 73.5C147.5 114.093 114.593 147 74 147C33.4071 147 0.5 114.093 0.5 73.5ZM11.984 73.5C11.984 107.75 39.7495 135.516 74 135.516C90.4505 135.525 106.23 128.994 117.862 117.362C129.494 105.73 136.025 89.9505 136.016 73.5C136.016 39.2495 108.25 11.484 74 11.484C39.7495 11.484 11.984 39.2495 11.984 73.5Z" fill="#FFB822"/>
</g>
<path d="M74.0001 37.002C70.8288 37.002 68.2581 39.5728 68.2581 42.744V79.725C68.2581 82.8962 70.8288 85.467 74.0001 85.467C77.1713 85.467 79.7421 82.8962 79.7421 79.725V42.744C79.7421 39.5728 77.1713 37.002 74.0001 37.002Z" fill="#FFB822"/>
<circle cx="74" cy="100.247" r="7.752" fill="#FFB822"/>
</svg>
