<svg width="148" height="147" viewBox="0 0 148 147" fill="none" xmlns="http://www.w3.org/2000/svg">
<g opacity="0.5">
<path fill-rule="evenodd" clip-rule="evenodd" d="M0.546021 73.454C0.546021 32.8865 33.4325 0 74 0C114.549 0.0440909 147.41 32.9048 147.454 73.454C147.454 114.022 114.568 146.908 74 146.908C33.4325 146.908 0.546021 114.022 0.546021 73.454ZM11.926 73.454C11.926 107.737 39.7175 135.528 74 135.528C108.266 135.488 136.034 107.72 136.074 73.454C136.074 39.1715 108.283 11.38 74 11.38C39.7175 11.38 11.926 39.1715 11.926 73.454Z" fill="#50CD89"/>
</g>
<path d="M107.699 47.908C105.373 45.7989 101.778 45.972 99.665 48.295L64.959 86.508L48.191 69.462C46.7694 67.997 44.6718 67.406 42.6945 67.9133C40.7171 68.4207 39.1632 69.9486 38.6225 71.917C38.0818 73.8855 38.6373 75.9928 40.078 77.439L61.064 98.779C62.1333 99.8674 63.5953 100.48 65.121 100.479C65.1571 100.478 65.1932 100.48 65.229 100.485C66.7941 100.453 68.277 99.7782 69.329 98.619L108.081 55.946C110.194 53.6203 110.023 50.0229 107.699 47.908Z" fill="#50CD89"/>
</svg>
